<svg xmlns="http://www.w3.org/2000/svg" width="320" height="80" viewBox="0 0 320 80" role="img" aria-label="Global Logistics Management Inc. logo">
  <rect width="320" height="80" rx="8" fill="#0b62fe" fill-opacity="0.08"/>
  <g transform="translate(16,16)" fill="#0b62fe">
    <path d="M24 6a18 18 0 1 0 0 36 18 18 0 0 0 0-36Zm0 4c3.9 0 7.5 1.5 10.2 3.9-2.1 2.3-6.2 3.9-10.2 3.9S16 16.2 13.8 13.9A14 14 0 0 1 24 10Zm0 28a14 14 0 0 1-10.2-4c2.2-2.3 6.3-4 10.2-4s8 1.7 10.2 4A14 14 0 0 1 24 38Z"/>
    <rect x="52" y="10" width="18" height="4" rx="2"/>
    <rect x="52" y="20" width="24" height="4" rx="2"/>
    <rect x="52" y="30" width="14" height="4" rx="2"/>
    <text x="88" y="30" font-family="Inter, Arial, sans-serif" font-size="22" font-weight="700">Global Logistics</text>
    <text x="88" y="48" font-family="Inter, Arial, sans-serif" font-size="12" fill-opacity="0.9">Management Inc.</text>
  </g>
</svg>


