<svg xmlns="http://www.w3.org/2000/svg" xmlns:xlink="http://www.w3.org/1999/xlink" width="336" zoomAndPan="magnify" viewBox="0 0 252 278.999983" height="372" preserveAspectRatio="xMidYMid meet" version="1.2"><defs><clipPath id="d5b264232e"><path d="M 35 35 L 216 35 L 216 216 L 35 216 Z M 35 35 "/></clipPath><clipPath id="22e844309d"><path d="M 251.417969 104.394531 L 147.019531 251.425781 L -0.0117188 147.027344 L 104.386719 -0.00390625 Z M 251.417969 104.394531 "/></clipPath><clipPath id="6d7329c59a"><path d="M 199.21875 177.910156 C 170.390625 218.511719 114.105469 228.054688 73.503906 199.226562 C 32.902344 170.398438 23.359375 114.113281 52.1875 73.511719 C 81.015625 32.910156 137.300781 23.367188 177.902344 52.195312 C 218.503906 81.023438 228.046875 137.308594 199.21875 177.910156 L 172.753906 159.121094 C 191.203125 133.132812 185.097656 97.113281 159.113281 78.660156 C 133.125 60.210938 97.105469 66.320312 78.652344 92.304688 C 60.203125 118.289062 66.3125 154.3125 92.296875 172.761719 C 118.28125 191.210938 154.304688 185.105469 172.753906 159.121094 Z M 199.21875 177.910156 "/></clipPath><clipPath id="b0cda955d7"><path d="M 35 35 L 192 35 L 192 216 L 35 216 Z M 35 35 "/></clipPath><clipPath id="018e3f5896"><path d="M 244.5625 111.621094 L 145.464844 251.1875 L -0.992188 147.195312 L 98.105469 7.628906 Z M 244.5625 111.621094 "/></clipPath><clipPath id="e182929f20"><path d="M 185.96875 192.777344 C 155.375 220.265625 110.058594 223.570312 75.804688 200.808594 C 41.550781 178.046875 27.039062 134.988281 40.53125 96.132812 C 54.023438 57.28125 92.097656 32.484375 133.085938 35.851562 C 138.863281 36.324219 143.949219 39.847656 146.429688 45.089844 C 148.90625 50.332031 148.402344 56.496094 145.101562 61.265625 C 141.800781 66.03125 136.207031 68.675781 130.429688 68.199219 C 104.195312 66.046875 79.828125 81.917969 71.191406 106.78125 C 62.558594 131.648438 71.84375 159.207031 93.769531 173.773438 C 115.691406 188.339844 144.695312 186.226562 164.273438 168.632812 C 170.941406 162.640625 181.199219 163.191406 187.191406 169.855469 C 193.183594 176.523438 192.636719 186.785156 185.96875 192.777344 Z M 185.96875 192.777344 "/></clipPath><clipPath id="8394638523"><path d="M 53 115 L 181 115 L 181 248 L 53 248 Z M 53 115 "/></clipPath><clipPath id="f1c83a62ee"><path d="M 123.769531 278.457031 L 21.816406 165.382812 L 78.074219 114.65625 L 180.027344 227.730469 Z M 123.769531 278.457031 "/></clipPath><clipPath id="0581545831"><path d="M 123.769531 278.457031 L 21.816406 165.382812 L 78.074219 114.65625 L 180.027344 227.730469 Z M 123.769531 278.457031 "/></clipPath><clipPath id="eb13fd111c"><path d="M 85.019531 35.003906 L 204.824219 35.003906 L 204.824219 153.503906 L 85.019531 153.503906 Z M 85.019531 35.003906 "/></clipPath></defs><g id="0dfabc7f6d"><rect x="0" width="252" y="0" height="278.999983" style="fill:#ffffff;fill-opacity:1;stroke:none;"/><path style=" stroke:none;fill-rule:nonzero;fill:#ffffff;fill-opacity:1;" d="M 251.417969 104.394531 L 147.019531 251.425781 L -0.0117188 147.027344 L 104.386719 -0.00390625 Z M 251.417969 104.394531 "/><g clip-rule="nonzero" clip-path="url(#d5b264232e)"><g clip-rule="nonzero" clip-path="url(#22e844309d)"><g clip-rule="nonzero" clip-path="url(#6d7329c59a)"><path style=" stroke:none;fill-rule:nonzero;fill:#ffffff;fill-opacity:1;" d="M 251.417969 104.394531 L 147.019531 251.425781 L -0.0117188 147.027344 L 104.386719 -0.00390625 Z M 251.417969 104.394531 "/></g></g></g><g clip-rule="nonzero" clip-path="url(#b0cda955d7)"><g clip-rule="nonzero" clip-path="url(#018e3f5896)"><g clip-rule="nonzero" clip-path="url(#e182929f20)"><path style=" stroke:none;fill-rule:nonzero;fill:#1d4ed8;fill-opacity:1;" d="M 251.417969 104.394531 L 147.019531 251.425781 L -0.0117188 147.027344 L 104.386719 -0.00390625 Z M 251.417969 104.394531 "/></g></g></g><g clip-rule="nonzero" clip-path="url(#8394638523)"><g clip-rule="nonzero" clip-path="url(#f1c83a62ee)"><g clip-rule="nonzero" clip-path="url(#0581545831)"><path style=" stroke:none;fill-rule:nonzero;fill:#ffffff;fill-opacity:1;" d="M 78.574219 115.214844 L 88.203125 125.894531 C 63.070312 148.554688 61.0625 187.4375 83.722656 212.570312 C 106.382812 237.703125 145.265625 239.710938 170.398438 217.050781 L 180.027344 227.730469 C 149.007812 255.699219 101.015625 253.21875 73.042969 222.199219 C 45.074219 191.175781 47.554688 143.183594 78.574219 115.214844 Z M 78.574219 115.214844 "/></g></g></g><g clip-rule="nonzero" clip-path="url(#eb13fd111c)"><path style=" stroke:none;fill-rule:nonzero;fill:#1d4ed8;fill-opacity:1;" d="M 120.488281 150.273438 L 86.464844 114.574219 C 84.46875 112.480469 84.546875 109.164062 86.640625 107.167969 L 87.617188 106.234375 C 93.3125 100.808594 102.332031 101.023438 107.757812 106.71875 L 125.621094 125.457031 C 136.261719 105.984375 157.785156 68.539062 180.15625 40.886719 C 185.996094 33.667969 196.769531 33 203.503906 39.390625 C 205.183594 40.980469 205.273438 43.609375 203.726562 45.324219 C 171.949219 80.585938 137.652344 147.148438 137.296875 147.835938 C 134.027344 154.21875 125.433594 155.460938 120.488281 150.273438 "/></g></g></svg>